<svg width="685" height="582" viewBox="0 0 685 582" fill="none" xmlns="http://www.w3.org/2000/svg">
<path d="M162.24 329.32C164.117 333.587 167.36 335.72 171.968 335.72C176.576 335.72 179.861 333.544 181.824 329.192C183.787 324.84 184.768 317.672 184.768 307.688C184.768 297.619 183.787 290.408 181.824 286.056C179.861 281.619 176.576 279.4 171.968 279.4C167.36 279.4 164.117 281.619 162.24 286.056C160.363 290.408 159.424 297.619 159.424 307.688C159.424 317.757 160.363 324.968 162.24 329.32ZM171.712 338.28C163.605 338.28 156.267 335.635 149.696 330.344C143.125 325.053 139.84 317.544 139.84 307.816C139.84 302.611 140.779 297.96 142.656 293.864C144.619 289.768 147.179 286.525 150.336 284.136C153.579 281.747 157.035 279.955 160.704 278.76C164.373 277.48 168.128 276.84 171.968 276.84C175.808 276.84 179.563 277.48 183.232 278.76C186.987 279.955 190.443 281.747 193.6 284.136C196.843 286.525 199.445 289.768 201.408 293.864C203.371 297.96 204.352 302.568 204.352 307.688C204.352 312.808 203.371 317.373 201.408 321.384C199.445 325.395 196.843 328.595 193.6 330.984C187.115 335.848 179.819 338.28 171.712 338.28ZM280.57 334.44H286.97V337H254.97V334.44H261.37V298.6C261.37 292.541 260.474 288.232 258.682 285.672C256.89 283.112 254.202 281.832 250.618 281.832C245.754 281.832 241.871 284.392 238.97 289.512V334.44H245.37V337H213.37V334.44H219.77V280.68H213.37V278.12H238.97V284.776C240.591 282.557 243.109 280.68 246.522 279.144C250.021 277.523 253.775 276.712 257.786 276.712C272.975 276.712 280.57 284.947 280.57 301.416V334.44ZM319.422 280.68V311.912C319.422 319.251 319.721 323.731 320.318 325.352C320.915 326.888 321.555 328.211 322.238 329.32C323.518 331.539 325.737 332.648 328.894 332.648C332.137 332.648 334.398 332.221 335.678 331.368V333.928C331.582 336.829 327.102 338.28 322.238 338.28C315.07 338.28 309.609 336.573 305.854 333.16C302.099 329.747 300.222 323.645 300.222 314.856V280.68H290.75V278.12H300.222C304.318 277.437 307.945 275.475 311.102 272.232C314.259 268.904 316.435 264.339 317.63 258.536H319.422V278.12H334.27V280.68H319.422ZM404.2 334.44C403.347 335.293 401.725 336.061 399.336 336.744C396.947 337.341 394.173 337.64 391.016 337.64C384.019 337.64 379.624 335.549 377.832 331.368C373.565 335.805 367.037 338.024 358.248 338.024C353.555 338.024 349.672 336.957 346.6 334.824C343.613 332.605 342.12 329.363 342.12 325.096C342.12 319.379 344.339 314.984 348.776 311.912C353.213 308.755 360.979 306.536 372.072 305.256L377.192 304.616V298.344C377.192 290.92 376.637 285.928 375.528 283.368C374.419 280.808 372.2 279.528 368.872 279.528C365.629 279.528 363.539 279.997 362.6 280.936C361.661 281.789 361.32 282.813 361.576 284.008C361.832 285.117 362.259 286.611 362.856 288.488C363.453 290.365 363.752 291.859 363.752 292.968C363.752 295.613 362.813 297.875 360.936 299.752C359.144 301.544 356.925 302.44 354.28 302.44C351.72 302.44 349.501 301.544 347.624 299.752C345.747 297.875 344.808 295.613 344.808 292.968C344.808 288.616 347.027 284.904 351.464 281.832C355.987 278.675 362.685 277.096 371.56 277.096C380.52 277.096 386.877 278.845 390.632 282.344C394.472 285.843 396.392 292.029 396.392 300.904V323.944C396.392 328.467 396.947 331.325 398.056 332.52C399.165 333.629 401.213 333.843 404.2 333.16V334.44ZM359.912 322.536C360.339 325.779 361.533 328.296 363.496 330.088C365.459 331.795 367.72 332.648 370.28 332.648C372.925 332.648 375.229 331.368 377.192 328.808V307.048L372.584 307.688C368.659 308.2 365.459 309.693 362.984 312.168C360.595 314.643 359.571 318.099 359.912 322.536ZM410.59 307.56C410.59 297.491 413.534 289.853 419.422 284.648C425.31 279.443 432.777 276.84 441.822 276.84C450.953 276.84 457.737 279.144 462.174 283.752C466.611 288.275 468.19 292.968 466.91 297.832C466.227 300.477 464.777 302.44 462.558 303.72C460.425 304.915 458.078 305.213 455.518 304.616C450.142 303.336 447.454 300.221 447.454 295.272C447.454 293.992 447.582 292.072 447.838 289.512C448.179 286.867 448.307 284.947 448.222 283.752C448.137 282.557 447.881 281.619 447.454 280.936C446.601 279.485 444.595 278.931 441.438 279.272C433.758 280.467 429.918 289.896 429.918 307.56C429.918 325.139 436.19 333.928 448.734 333.928C451.635 333.928 454.579 333.16 457.566 331.624C460.553 330.088 462.771 328.253 464.222 326.12L466.014 327.4C464.051 330.643 461.107 333.245 457.182 335.208C453.257 337.171 448.862 338.152 443.998 338.152C421.726 338.152 410.59 327.955 410.59 307.56ZM499.797 280.68V311.912C499.797 319.251 500.096 323.731 500.693 325.352C501.29 326.888 501.93 328.211 502.613 329.32C503.893 331.539 506.112 332.648 509.269 332.648C512.512 332.648 514.773 332.221 516.053 331.368V333.928C511.957 336.829 507.477 338.28 502.613 338.28C495.445 338.28 489.984 336.573 486.229 333.16C482.474 329.747 480.597 323.645 480.597 314.856V280.68H471.125V278.12H480.597C484.693 277.437 488.32 275.475 491.477 272.232C494.634 268.904 496.81 264.339 498.005 258.536H499.797V278.12H514.645V280.68H499.797ZM594.155 337V330.216C592.534 332.52 589.974 334.483 586.475 336.104C583.062 337.64 579.35 338.408 575.339 338.408C560.15 338.408 552.555 330.173 552.555 313.704V280.68H546.155V278.12H571.755V316.52C571.755 322.579 572.651 326.888 574.443 329.448C576.235 332.008 578.923 333.288 582.507 333.288C587.286 333.288 591.168 330.728 594.155 325.608V280.68H587.755V278.12H613.355V334.44H619.755V337H594.155ZM657.545 335.976C666.42 335.976 670.857 333.544 670.857 328.68C670.857 325.949 669.321 323.731 666.249 322.024C663.177 320.232 659.465 318.781 655.113 317.672C650.761 316.563 646.452 315.283 642.185 313.832C638.004 312.381 634.505 310.077 631.689 306.92C628.958 303.763 627.849 299.624 628.361 294.504C628.873 289.384 631.476 285.16 636.169 281.832C640.948 278.504 646.793 276.84 653.705 276.84C660.702 276.84 666.334 277.949 670.601 280.168C674.868 282.387 677.257 285.373 677.769 289.128C678.11 291.432 677.726 293.565 676.617 295.528C675.593 297.491 673.844 298.515 671.369 298.6C668.98 298.685 666.974 298.045 665.353 296.68C663.817 295.315 663.092 293.736 663.177 291.944C663.262 290.152 663.945 288.573 665.225 287.208C666.505 285.757 667.145 284.605 667.145 283.752C667.145 282.301 665.737 281.235 662.921 280.552C660.19 279.784 656.99 279.4 653.321 279.4C649.737 279.4 646.793 280.211 644.489 281.832C642.185 283.453 641.033 285.459 641.033 287.848C641.033 290.237 642.441 292.285 645.257 293.992C648.158 295.699 651.657 297.107 655.753 298.216C659.849 299.24 663.902 300.435 667.913 301.8C672.009 303.08 675.465 305.171 678.281 308.072C681.182 310.973 682.633 314.643 682.633 319.08C682.633 324.968 680.542 329.704 676.361 333.288C672.18 336.787 665.865 338.536 657.417 338.536C648.969 338.536 642.1 337.256 636.809 334.696C631.604 332.136 628.745 328.851 628.233 324.84C627.892 322.536 628.276 320.403 629.385 318.44C630.494 316.477 632.244 315.453 634.633 315.368C637.022 315.283 638.985 315.923 640.521 317.288C642.142 318.653 642.91 320.232 642.825 322.024C642.74 323.816 642.057 325.437 640.777 326.888C639.497 328.253 638.857 329.363 638.857 330.216C638.857 331.923 640.82 333.331 644.745 334.44C648.756 335.464 653.022 335.976 657.545 335.976Z" fill="#D6D6D6"/>
<path d="M262.5 266.5H252.5C252.5 239.833 244 215.167 227 192.5C210 169.833 185.667 158.5 154 158.5C136.333 158.5 121.667 168.833 110 189.5C98.6667 210.167 93 245.5 93 295.5C93 345.5 98.6667 380.833 110 401.5C121.667 422.167 139.667 432.5 164 432.5C188.667 432.5 209.333 424.833 226 409.5C243 394.167 253.5 372.5 257.5 344.5H267.5C262.833 377.5 251.167 402.167 232.5 418.5C214.167 434.5 192.167 442.5 166.5 442.5C116.833 442.5 78.6667 430.667 52 407C25.6667 383 12.5 345.667 12.5 295C12.5 244 25.3333 206.833 51 183.5C77 160.167 111.333 148.5 154 148.5C177 148.5 199.333 154.667 221 167C228 171.333 233.667 173.5 238 173.5C242.667 173.5 246.333 171.5 249 167.5C251.667 163.167 253 159 253 155H262.5V266.5Z" fill="#D6D6D6"/>
</svg>
