<svg width="355" height="70" viewBox="0 0 355 70" fill="none" xmlns="http://www.w3.org/2000/svg">
<path d="M44.04 49.76H45.96V68H0.84V66.08H5.64V16.16H0.84V14.24H25.8V16.16H20.04V66.08H29.64C31.816 66.08 33.608 65.92 35.016 65.6C36.488 65.28 37.992 64.608 39.528 63.584C42.536 61.6 44.04 56.992 44.04 49.76ZM93.147 48.8H64.155C64.795 60.064 69.179 65.696 77.307 65.696C79.483 65.696 81.947 65.184 84.699 64.16C87.515 63.136 89.563 61.696 90.843 59.84L92.187 60.8C90.779 63.168 88.379 65.12 84.987 66.656C81.595 68.192 78.203 68.96 74.811 68.96C71.483 68.96 68.475 68.64 65.787 68C63.099 67.296 60.475 66.144 57.915 64.544C55.355 62.944 53.339 60.544 51.867 57.344C50.459 54.144 49.755 50.272 49.755 45.728C49.755 37.984 51.899 32.256 56.187 28.544C60.475 24.768 65.659 22.88 71.739 22.88C77.883 22.88 82.971 24.928 87.003 29.024C91.099 33.12 93.147 39.712 93.147 48.8ZM64.059 46.88H79.707C79.707 40.992 79.067 35.84 77.787 31.424C76.571 27.008 74.587 24.8 71.835 24.8C69.083 24.8 67.099 26.944 65.883 31.232C64.667 35.456 64.059 40.32 64.059 45.824V46.88ZM117.785 25.76V49.184C117.785 54.688 118.009 58.048 118.457 59.264C118.905 60.416 119.385 61.408 119.897 62.24C120.857 63.904 122.521 64.736 124.889 64.736C127.321 64.736 129.017 64.416 129.977 63.776V65.696C126.905 67.872 123.545 68.96 119.897 68.96C114.521 68.96 110.425 67.68 107.609 65.12C104.793 62.56 103.385 57.984 103.385 51.392V25.76H96.2812V23.84H103.385C106.457 23.328 109.177 21.856 111.545 19.424C113.913 16.928 115.545 13.504 116.441 9.152H117.785V23.84H128.921V25.76H117.785ZM141.913 13.664L138.361 14.24C136.697 14.24 135.193 13.696 133.849 12.608C132.569 11.456 131.929 9.824 131.929 7.712C131.929 5.536 132.633 3.71199 134.041 2.23999C135.449 0.767998 137.401 0.0319996 139.897 0.0319996C142.457 0.0319996 144.537 0.991999 146.137 2.912C147.801 4.832 148.633 7.328 148.633 10.4C148.633 13.408 147.449 16.416 145.081 19.424C142.777 22.432 139.449 24.928 135.097 26.912L134.425 25.28C140.441 21.952 143.449 18.592 143.449 15.2C143.449 14.176 142.937 13.664 141.913 13.664ZM175.44 67.232C182.096 67.232 185.424 65.408 185.424 61.76C185.424 59.712 184.272 58.048 181.968 56.768C179.664 55.424 176.88 54.336 173.616 53.504C170.352 52.672 167.12 51.712 163.92 50.624C160.784 49.536 158.16 47.808 156.048 45.44C154 43.072 153.168 39.968 153.552 36.128C153.936 32.288 155.888 29.12 159.408 26.624C162.992 24.128 167.376 22.88 172.56 22.88C177.808 22.88 182.032 23.712 185.232 25.376C188.432 27.04 190.224 29.28 190.608 32.096C190.864 33.824 190.576 35.424 189.744 36.896C188.976 38.368 187.664 39.136 185.808 39.2C184.016 39.264 182.512 38.784 181.296 37.76C180.144 36.736 179.6 35.552 179.664 34.208C179.728 32.864 180.24 31.68 181.2 30.656C182.16 29.568 182.64 28.704 182.64 28.064C182.64 26.976 181.584 26.176 179.472 25.664C177.424 25.088 175.024 24.8 172.272 24.8C169.584 24.8 167.376 25.408 165.648 26.624C163.92 27.84 163.056 29.344 163.056 31.136C163.056 32.928 164.112 34.464 166.224 35.744C168.4 37.024 171.024 38.08 174.096 38.912C177.168 39.68 180.208 40.576 183.216 41.6C186.288 42.56 188.88 44.128 190.992 46.304C193.168 48.48 194.256 51.232 194.256 54.56C194.256 58.976 192.688 62.528 189.552 65.216C186.416 67.84 181.68 69.152 175.344 69.152C169.008 69.152 163.856 68.192 159.888 66.272C155.984 64.352 153.84 61.888 153.456 58.88C153.2 57.152 153.488 55.552 154.32 54.08C155.152 52.608 156.464 51.84 158.256 51.776C160.048 51.712 161.52 52.192 162.672 53.216C163.888 54.24 164.464 55.424 164.4 56.768C164.336 58.112 163.824 59.328 162.864 60.416C161.904 61.44 161.424 62.272 161.424 62.912C161.424 64.192 162.896 65.248 165.84 66.08C168.848 66.848 172.048 67.232 175.44 67.232ZM248.828 66.08C258.428 66.08 263.228 60.64 263.228 49.76H265.148V68H220.028V66.08H224.828V16.16H220.028V14.24H264.188V30.56H262.268C262.268 24.864 261.116 21.056 258.812 19.136C256.572 17.152 252.924 16.16 247.868 16.16H239.228V39.2H243.068C247.676 39.2 250.588 38.624 251.804 37.472C253.02 36.32 253.628 34.016 253.628 30.56H255.548V49.76H253.628C253.628 46.176 253.02 43.84 251.804 42.752C250.588 41.664 247.676 41.12 243.068 41.12H239.228V66.08H248.828ZM318.9 66.08C318.26 66.72 317.044 67.296 315.252 67.808C313.46 68.256 311.38 68.48 309.012 68.48C303.764 68.48 300.468 66.912 299.124 63.776C295.924 67.104 291.028 68.768 284.436 68.768C280.916 68.768 278.004 67.968 275.7 66.368C273.46 64.704 272.34 62.272 272.34 59.072C272.34 54.784 274.004 51.488 277.332 49.184C280.66 46.816 286.484 45.152 294.804 44.192L298.644 43.712V39.008C298.644 33.44 298.228 29.696 297.396 27.776C296.564 25.856 294.9 24.896 292.404 24.896C289.972 24.896 288.404 25.248 287.7 25.952C286.996 26.592 286.74 27.36 286.932 28.256C287.124 29.088 287.444 30.208 287.892 31.616C288.34 33.024 288.564 34.144 288.564 34.976C288.564 36.96 287.86 38.656 286.452 40.064C285.108 41.408 283.444 42.08 281.46 42.08C279.54 42.08 277.876 41.408 276.468 40.064C275.06 38.656 274.356 36.96 274.356 34.976C274.356 31.712 276.02 28.928 279.348 26.624C282.74 24.256 287.764 23.072 294.42 23.072C301.14 23.072 305.908 24.384 308.724 27.008C311.604 29.632 313.044 34.272 313.044 40.928V58.208C313.044 61.6 313.46 63.744 314.292 64.64C315.124 65.472 316.66 65.632 318.9 65.12V66.08ZM285.684 57.152C286.004 59.584 286.9 61.472 288.372 62.816C289.844 64.096 291.54 64.736 293.46 64.736C295.444 64.736 297.172 63.776 298.644 61.856V45.536L295.188 46.016C292.244 46.4 289.844 47.52 287.988 49.376C286.196 51.232 285.428 53.824 285.684 57.152ZM342.317 25.76V49.184C342.317 54.688 342.541 58.048 342.989 59.264C343.437 60.416 343.917 61.408 344.429 62.24C345.389 63.904 347.053 64.736 349.421 64.736C351.853 64.736 353.549 64.416 354.509 63.776V65.696C351.437 67.872 348.077 68.96 344.429 68.96C339.053 68.96 334.957 67.68 332.141 65.12C329.325 62.56 327.917 57.984 327.917 51.392V25.76H320.812V23.84H327.917C330.989 23.328 333.709 21.856 336.077 19.424C338.445 16.928 340.077 13.504 340.973 9.152H342.317V23.84H353.453V25.76H342.317Z" fill="white"/>
</svg>
