<svg width="218" height="67" viewBox="0 0 218 67" fill="none" xmlns="http://www.w3.org/2000/svg">
<rect x="0.5" y="0.5" width="217" height="65.4381" rx="10.5" fill="#00785B" fill-opacity="0.45" stroke="#00AEB9"/>
<path d="M72.1476 42.562L73.8956 47.9418H79.5523L74.9759 51.2667L76.7239 56.6465L72.1476 53.3216L67.5713 56.6465L69.3193 51.2667L64.743 47.9418H70.3996L72.1476 42.562Z" fill="#FDD254"/>
<path d="M87.7191 42.562L89.4671 47.9418H95.1237L90.5474 51.2667L92.2954 56.6465L87.7191 53.3216L83.1427 56.6465L84.8907 51.2667L80.3144 47.9418H85.9711L87.7191 42.562Z" fill="#FDD254"/>
<path d="M103.29 42.562L105.038 47.9418H110.695L106.119 51.2667L107.867 56.6465L103.29 53.3216L98.7141 56.6465L100.462 51.2667L95.8858 47.9418H101.542L103.29 42.562Z" fill="#FDD254"/>
<path d="M118.862 42.562L120.61 47.9418H126.267L121.69 51.2667L123.438 56.6465L118.862 53.3216L114.286 56.6465L116.034 51.2667L111.457 47.9418H117.114L118.862 42.562Z" fill="#FDD254"/>
<path d="M134.433 42.562L136.181 47.9418H141.838L137.262 51.2667L139.01 56.6465L134.433 53.3216L129.857 56.6465L131.605 51.2667L127.029 47.9418H132.685L134.433 42.562Z" fill="#FDD254"/>
<rect x="15.0333" y="10.8809" width="30.1429" height="31.181" rx="15.0714" fill="#00493C" stroke="#00AEB9"/>
<path d="M69.0019 30.6096H65.0019V30.2896H65.8019V21.9696H65.0019V21.6496H69.0019C69.7912 21.6496 70.5006 21.783 71.1299 22.0496C71.7699 22.3056 72.2872 22.647 72.6819 23.0736C73.4819 23.959 73.8819 24.9616 73.8819 26.0816C73.8819 27.5963 73.4819 28.7323 72.6819 29.4896C71.8819 30.2363 70.6552 30.6096 69.0019 30.6096ZM68.2019 30.2896C69.3539 30.2896 70.1859 29.9803 70.6979 29.3616C71.2099 28.7323 71.4659 27.7136 71.4659 26.3056C71.4659 24.887 71.1886 23.8096 70.6339 23.0736C70.0792 22.3376 69.2686 21.9696 68.2019 21.9696V30.2896ZM82.7977 27.4096H77.9657C78.0723 29.287 78.803 30.2256 80.1577 30.2256C80.5203 30.2256 80.931 30.1403 81.3897 29.9696C81.859 29.799 82.2003 29.559 82.4137 29.2496L82.6377 29.4096C82.403 29.8043 82.003 30.1296 81.4377 30.3856C80.8723 30.6416 80.307 30.7696 79.7417 30.7696C79.187 30.7696 78.6857 30.7163 78.2377 30.6096C77.7897 30.4923 77.3523 30.3003 76.9257 30.0336C76.499 29.767 76.163 29.367 75.9177 28.8336C75.683 28.3003 75.5657 27.655 75.5657 26.8976C75.5657 25.607 75.923 24.6523 76.6377 24.0336C77.3523 23.4043 78.2163 23.0896 79.2297 23.0896C80.2537 23.0896 81.1017 23.431 81.7737 24.1136C82.4563 24.7963 82.7977 25.895 82.7977 27.4096ZM77.9497 27.0896H80.5577C80.5577 26.1083 80.451 25.2496 80.2377 24.5136C80.035 23.7776 79.7043 23.4096 79.2457 23.4096C78.787 23.4096 78.4563 23.767 78.2537 24.4816C78.051 25.1856 77.9497 25.9963 77.9497 26.9136V27.0896ZM88.04 30.2896H88.84V30.6096H84.84V30.2896H85.64V20.2096H84.84V19.8896H88.04V30.2896ZM94.045 30.2896H94.845V30.6096H90.845V30.2896H91.645V23.5696H91.005V23.2496H94.045V30.2896ZM94.189 21.1376C94.189 21.5216 94.0504 21.8523 93.773 22.1296C93.5064 22.3963 93.1757 22.5296 92.781 22.5296C92.397 22.5296 92.0664 22.3963 91.789 22.1296C91.5117 21.8523 91.373 21.5216 91.373 21.1376C91.373 20.743 91.5117 20.407 91.789 20.1296C92.0664 19.8523 92.397 19.7136 92.781 19.7136C93.1757 19.7136 93.5064 19.8523 93.773 20.1296C94.0504 20.407 94.189 20.743 94.189 21.1376ZM96.69 26.9296C96.69 25.671 97.058 24.7163 97.794 24.0656C98.53 23.415 99.4634 23.0896 100.594 23.0896C101.735 23.0896 102.583 23.3776 103.138 23.9536C103.693 24.519 103.89 25.1056 103.73 25.7136C103.645 26.0443 103.463 26.2896 103.186 26.4496C102.919 26.599 102.626 26.6363 102.306 26.5616C101.634 26.4016 101.298 26.0123 101.298 25.3936C101.298 25.2336 101.314 24.9936 101.346 24.6736C101.389 24.343 101.405 24.103 101.394 23.9536C101.383 23.8043 101.351 23.687 101.298 23.6016C101.191 23.4203 100.941 23.351 100.546 23.3936C99.586 23.543 99.106 24.7216 99.106 26.9296C99.106 29.127 99.89 30.2256 101.458 30.2256C101.821 30.2256 102.189 30.1296 102.562 29.9376C102.935 29.7456 103.213 29.5163 103.394 29.2496L103.618 29.4096C103.373 29.815 103.005 30.1403 102.514 30.3856C102.023 30.631 101.474 30.7536 100.866 30.7536C98.082 30.7536 96.69 29.479 96.69 26.9296ZM108.977 30.2896H109.777V30.6096H105.777V30.2896H106.577V23.5696H105.937V23.2496H108.977V30.2896ZM109.121 21.1376C109.121 21.5216 108.982 21.8523 108.705 22.1296C108.438 22.3963 108.108 22.5296 107.713 22.5296C107.329 22.5296 106.998 22.3963 106.721 22.1296C106.444 21.8523 106.305 21.5216 106.305 21.1376C106.305 20.743 106.444 20.407 106.721 20.1296C106.998 19.8523 107.329 19.7136 107.713 19.7136C108.108 19.7136 108.438 19.8523 108.705 20.1296C108.982 20.407 109.121 20.743 109.121 21.1376ZM114.422 29.6496C114.657 30.183 115.062 30.4496 115.638 30.4496C116.214 30.4496 116.625 30.1776 116.87 29.6336C117.115 29.0896 117.238 28.1936 117.238 26.9456C117.238 25.687 117.115 24.7856 116.87 24.2416C116.625 23.687 116.214 23.4096 115.638 23.4096C115.062 23.4096 114.657 23.687 114.422 24.2416C114.187 24.7856 114.07 25.687 114.07 26.9456C114.07 28.2043 114.187 29.1056 114.422 29.6496ZM115.606 30.7696C114.593 30.7696 113.675 30.439 112.854 29.7776C112.033 29.1163 111.622 28.1776 111.622 26.9616C111.622 26.311 111.739 25.7296 111.974 25.2176C112.219 24.7056 112.539 24.3003 112.934 24.0016C113.339 23.703 113.771 23.479 114.23 23.3296C114.689 23.1696 115.158 23.0896 115.638 23.0896C116.118 23.0896 116.587 23.1696 117.046 23.3296C117.515 23.479 117.947 23.703 118.342 24.0016C118.747 24.3003 119.073 24.7056 119.318 25.2176C119.563 25.7296 119.686 26.3056 119.686 26.9456C119.686 27.5856 119.563 28.1563 119.318 28.6576C119.073 29.159 118.747 29.559 118.342 29.8576C117.531 30.4656 116.619 30.7696 115.606 30.7696ZM127.213 30.6096V29.7616C127.01 30.0496 126.69 30.295 126.253 30.4976C125.826 30.6896 125.362 30.7856 124.861 30.7856C122.962 30.7856 122.013 29.7563 122.013 27.6976V23.5696H121.213V23.2496H124.413V28.0496C124.413 28.807 124.525 29.3456 124.749 29.6656C124.973 29.9856 125.309 30.1456 125.757 30.1456C126.354 30.1456 126.84 29.8256 127.213 29.1856V23.5696H126.413V23.2496H129.613V30.2896H130.413V30.6096H127.213ZM136.017 30.4816C137.126 30.4816 137.681 30.1776 137.681 29.5696C137.681 29.2283 137.489 28.951 137.105 28.7376C136.721 28.5136 136.257 28.3323 135.713 28.1936C135.169 28.055 134.63 27.895 134.097 27.7136C133.574 27.5323 133.137 27.2443 132.785 26.8496C132.444 26.455 132.305 25.9376 132.369 25.2976C132.433 24.6576 132.758 24.1296 133.345 23.7136C133.942 23.2976 134.673 23.0896 135.537 23.0896C136.412 23.0896 137.116 23.2283 137.649 23.5056C138.182 23.783 138.481 24.1563 138.545 24.6256C138.588 24.9136 138.54 25.1803 138.401 25.4256C138.273 25.671 138.054 25.799 137.745 25.8096C137.446 25.8203 137.196 25.7403 136.993 25.5696C136.801 25.399 136.71 25.2016 136.721 24.9776C136.732 24.7536 136.817 24.5563 136.977 24.3856C137.137 24.2043 137.217 24.0603 137.217 23.9536C137.217 23.7723 137.041 23.639 136.689 23.5536C136.348 23.4576 135.948 23.4096 135.489 23.4096C135.041 23.4096 134.673 23.511 134.385 23.7136C134.097 23.9163 133.953 24.167 133.953 24.4656C133.953 24.7643 134.129 25.0203 134.481 25.2336C134.844 25.447 135.281 25.623 135.793 25.7616C136.305 25.8896 136.812 26.039 137.313 26.2096C137.825 26.3696 138.257 26.631 138.609 26.9936C138.972 27.3563 139.153 27.815 139.153 28.3696C139.153 29.1056 138.892 29.6976 138.369 30.1456C137.846 30.583 137.057 30.8016 136.001 30.8016C134.945 30.8016 134.086 30.6416 133.425 30.3216C132.774 30.0016 132.417 29.591 132.353 29.0896C132.31 28.8016 132.358 28.535 132.497 28.2896C132.636 28.0443 132.854 27.9163 133.153 27.9056C133.452 27.895 133.697 27.975 133.889 28.1456C134.092 28.3163 134.188 28.5136 134.177 28.7376C134.166 28.9616 134.081 29.1643 133.921 29.3456C133.761 29.5163 133.681 29.655 133.681 29.7616C133.681 29.975 133.926 30.151 134.417 30.2896C134.918 30.4176 135.452 30.4816 136.017 30.4816ZM149.208 30.6096H145.208V30.2896H146.008V23.5696H145.048V23.2496H146.008C146.008 20.903 147.064 19.7296 149.176 19.7296C149.923 19.7296 150.493 19.8896 150.888 20.2096C151.283 20.519 151.48 20.8816 151.48 21.2976C151.48 21.5536 151.395 21.7563 151.224 21.9056C151.064 22.0443 150.872 22.1136 150.648 22.1136C150.072 22.1136 149.784 21.7723 149.784 21.0896C149.784 20.3963 149.581 20.0496 149.176 20.0496C148.877 20.0496 148.675 20.311 148.568 20.8336C148.461 21.3456 148.408 22.151 148.408 23.2496H150.488V23.5696H148.408V30.2896H149.208V30.6096ZM155.634 29.6496C155.869 30.183 156.274 30.4496 156.85 30.4496C157.426 30.4496 157.837 30.1776 158.082 29.6336C158.328 29.0896 158.45 28.1936 158.45 26.9456C158.45 25.687 158.328 24.7856 158.082 24.2416C157.837 23.687 157.426 23.4096 156.85 23.4096C156.274 23.4096 155.869 23.687 155.634 24.2416C155.4 24.7856 155.282 25.687 155.282 26.9456C155.282 28.2043 155.4 29.1056 155.634 29.6496ZM156.818 30.7696C155.805 30.7696 154.888 30.439 154.066 29.7776C153.245 29.1163 152.834 28.1776 152.834 26.9616C152.834 26.311 152.952 25.7296 153.186 25.2176C153.432 24.7056 153.752 24.3003 154.146 24.0016C154.552 23.703 154.984 23.479 155.442 23.3296C155.901 23.1696 156.37 23.0896 156.85 23.0896C157.33 23.0896 157.8 23.1696 158.258 23.3296C158.728 23.479 159.16 23.703 159.554 24.0016C159.96 24.3003 160.285 24.7056 160.53 25.2176C160.776 25.7296 160.898 26.3056 160.898 26.9456C160.898 27.5856 160.776 28.1563 160.53 28.6576C160.285 29.159 159.96 29.559 159.554 29.8576C158.744 30.4656 157.832 30.7696 156.818 30.7696ZM165.546 29.6496C165.78 30.183 166.186 30.4496 166.762 30.4496C167.338 30.4496 167.748 30.1776 167.994 29.6336C168.239 29.0896 168.362 28.1936 168.362 26.9456C168.362 25.687 168.239 24.7856 167.994 24.2416C167.748 23.687 167.338 23.4096 166.762 23.4096C166.186 23.4096 165.78 23.687 165.546 24.2416C165.311 24.7856 165.194 25.687 165.194 26.9456C165.194 28.2043 165.311 29.1056 165.546 29.6496ZM166.73 30.7696C165.716 30.7696 164.799 30.439 163.978 29.7776C163.156 29.1163 162.746 28.1776 162.746 26.9616C162.746 26.311 162.863 25.7296 163.098 25.2176C163.343 24.7056 163.663 24.3003 164.058 24.0016C164.463 23.703 164.895 23.479 165.354 23.3296C165.812 23.1696 166.282 23.0896 166.762 23.0896C167.242 23.0896 167.711 23.1696 168.17 23.3296C168.639 23.479 169.071 23.703 169.466 24.0016C169.871 24.3003 170.196 24.7056 170.442 25.2176C170.687 25.7296 170.81 26.3056 170.81 26.9456C170.81 27.5856 170.687 28.1563 170.442 28.6576C170.196 29.159 169.871 29.559 169.466 29.8576C168.655 30.4656 167.743 30.7696 166.73 30.7696ZM175.841 30.8016C174.977 30.8016 174.23 30.4603 173.601 29.7776C172.972 29.095 172.657 28.1296 172.657 26.8816C172.657 25.6336 172.966 24.6576 173.585 23.9536C174.204 23.2496 174.956 22.8976 175.841 22.8976C176.278 22.8976 176.689 22.9883 177.073 23.1696C177.457 23.351 177.734 23.623 177.905 23.9856V20.2096H177.105V19.8896H180.305V30.2896H181.105V30.6096H177.905V29.8736C177.617 30.4923 176.929 30.8016 175.841 30.8016ZM177.905 27.1056V24.4656C177.617 23.8896 177.238 23.6016 176.769 23.6016C176.31 23.6016 175.916 23.8683 175.585 24.4016C175.254 24.935 175.089 25.783 175.089 26.9456C175.089 28.0976 175.26 28.9403 175.601 29.4736C175.942 30.007 176.353 30.2363 176.833 30.1616C177.1 30.119 177.302 30.0336 177.441 29.9056C177.75 29.607 177.905 28.6736 177.905 27.1056ZM188.605 25.6816C188.327 25.1803 188.071 24.743 187.837 24.3696C187.613 23.9856 187.501 23.5856 187.501 23.1696C187.501 22.743 187.645 22.359 187.933 22.0176C188.221 21.6763 188.669 21.5056 189.277 21.5056C189.885 21.5056 190.333 21.6763 190.621 22.0176C190.909 22.359 191.053 22.7376 191.053 23.1536C191.053 23.5696 190.941 23.9696 190.717 24.3536C190.493 24.727 190.242 25.1696 189.965 25.6816C189.687 26.183 189.501 26.7216 189.405 27.2976H189.149C189.063 26.7216 188.882 26.183 188.605 25.6816ZM189.293 30.9456C188.887 30.9456 188.541 30.8016 188.253 30.5136C187.965 30.2256 187.821 29.879 187.821 29.4736C187.821 29.0576 187.965 28.7056 188.253 28.4176C188.541 28.1296 188.887 27.9856 189.293 27.9856C189.709 27.9856 190.061 28.1296 190.349 28.4176C190.637 28.7056 190.781 29.0576 190.781 29.4736C190.781 29.879 190.637 30.2256 190.349 30.5136C190.061 30.8016 189.709 30.9456 189.293 30.9456Z" fill="white"/>
</svg>
