<svg width="218" height="85" viewBox="0 0 218 85" fill="none" xmlns="http://www.w3.org/2000/svg">
<rect x="0.5" y="31.5" width="217" height="53" rx="10.5" fill="#103F00" fill-opacity="0.45" stroke="#00B929"/>
<path d="M72.1476 61.5618L73.8956 66.9416H79.5523L74.9759 70.2665L76.7239 75.6463L72.1476 72.3214L67.5713 75.6463L69.3193 70.2665L64.743 66.9416H70.3996L72.1476 61.5618Z" fill="#FDD254"/>
<path d="M87.7191 61.5618L89.4671 66.9416H95.1237L90.5474 70.2665L92.2954 75.6463L87.7191 72.3214L83.1427 75.6463L84.8907 70.2665L80.3144 66.9416H85.9711L87.7191 61.5618Z" fill="#FDD254"/>
<path d="M103.29 61.5618L105.038 66.9416H110.695L106.119 70.2665L107.867 75.6463L103.29 72.3214L98.7141 75.6463L100.462 70.2665L95.8858 66.9416H101.542L103.29 61.5618Z" fill="#FDD254"/>
<path d="M118.862 61.5618L120.61 66.9416H126.267L121.69 70.2665L123.438 75.6463L118.862 72.3214L114.286 75.6463L116.034 70.2665L111.457 66.9416H117.114L118.862 61.5618Z" fill="#FDD254"/>
<path d="M134.433 61.5618L136.181 66.9416H141.838L137.262 70.2665L139.01 75.6463L134.433 72.3214L129.857 75.6463L131.605 70.2665L127.029 66.9416H132.685L134.433 61.5618Z" fill="#FDD254"/>
<g filter="url(#filter0_d_169_68)">
<rect x="33.1849" y="37.9209" width="3.22544" height="11.3739" fill="url(#paint0_linear_169_68)"/>
<path d="M20.9478 13.9106H11C11 21.6249 11.5916 26.0622 22.5826 26.0622" stroke="#FFDD66" stroke-width="3"/>
<path d="M49.3434 24.0141C49.3434 32.0825 42.8027 38.6233 34.7342 38.6233C26.6658 38.6233 20.125 32.0825 20.125 24.0141C20.125 15.9457 26.6658 9.40489 34.7342 9.40489C42.8027 9.40489 49.3434 15.9457 49.3434 24.0141Z" fill="#FFDD66"/>
<path d="M34.7342 48.7269C28.7772 48.7269 23.948 50.469 23.948 52.6181H45.5205C45.5205 50.469 40.6913 48.7269 34.7342 48.7269Z" fill="#FFDD66"/>
<path d="M20.125 6.59717H49.3434V23.3314H20.125V6.59717Z" fill="#FFDD66"/>
<path d="M45.5205 53.369H23.948V52.5498H45.5205V53.369Z" fill="#FFDD66"/>
<path d="M48.9303 13.9106H58.878C58.878 21.6249 58.2864 26.0622 47.2954 26.0622" stroke="#DE9300" stroke-width="3"/>
<path d="M49.3434 24.0142C49.3434 32.0827 42.8027 38.6234 34.7342 38.6234C34.7342 38.6234 34.7342 32.0827 34.7342 24.0142C34.7342 15.9458 34.7342 9.40501 34.7342 9.40501C42.8027 9.40501 49.3434 15.9458 49.3434 24.0142Z" fill="url(#paint1_linear_169_68)"/>
<path d="M34.7342 48.727C34.7342 48.727 34.7342 50.4691 34.7342 52.6182H45.5205C45.5205 50.4691 40.6913 48.727 34.7342 48.727Z" fill="url(#paint2_linear_169_68)"/>
<path d="M34.7342 6.59839H49.3434V23.3315H34.7342V6.59839Z" fill="url(#paint3_linear_169_68)"/>
<path d="M45.5205 53.3692H34.7342C34.7342 53.3692 34.71 52.8689 34.7342 52.5499C35.0532 48.3498 45.5205 52.5499 45.5205 52.5499V53.3692Z" fill="url(#paint4_linear_169_68)"/>
<circle cx="35.021" cy="22.3879" r="8.74263" fill="#DCAE0C"/>
<circle cx="35.0035" cy="22.2801" r="8.70747" fill="#DE9300" stroke="#FFE176" stroke-width="4.55437"/>
<path d="M35.0035 15.0928L37.2185 19.5228L41.6485 20.0766L38.6066 23.4877L39.4335 28.3828L35.0035 26.1678L30.5735 28.3828L31.4078 23.4877L28.3585 20.0766L32.7885 19.5228L35.0035 15.0928Z" fill="#FFF4BC"/>
<path d="M35.8979 14.6456L35.0035 12.8567L34.1091 14.6456L32.1334 18.5969L28.2344 19.0843L26.3416 19.3209L27.6129 20.743L30.341 23.7948L29.5877 28.2148L29.2562 30.1595L31.0207 29.2773L35.0035 27.2859L38.9863 29.2773L40.7475 30.1579L40.4196 28.2163L39.6726 23.7947L42.3949 20.7421L43.6626 19.3205L41.7726 19.0843L37.8736 18.5969L35.8979 14.6456Z" stroke="#C98500" stroke-opacity="0.7" stroke-width="2"/>
<path d="M16.9273 10.171L18.4678 6.78065L16.9273 3.39033L20.3177 4.93081L23.708 3.39033L22.1675 6.78065L23.708 10.171L20.3177 8.6305L16.9273 10.171Z" fill="white"/>
<path d="M19.5268 67.8944C19.5268 59.51 26.4428 52.7131 34.8271 52.7131V52.7131C43.2115 52.7131 50.1275 59.51 50.1275 67.8944V68.3882H19.5268V67.8944Z" fill="#243B6D"/>
<rect x="25.7064" y="58.5488" width="18.8655" height="4.49052" fill="#F9B50E" stroke="#FFEC86" stroke-width="3.91749"/>
<path d="M25.375 56.5901H35.6816L43.8183 64.9981H33.5118L25.375 56.5901Z" fill="#FFEC86"/>
<rect x="17.8267" y="68.3879" width="34.0008" height="3.25471" fill="#DE9300"/>
</g>
<path d="M74.4899 56.2894V56.6094H70.2819V56.2894H71.2259L70.1539 54.0654H66.9219L65.9939 56.2894H67.2579V56.6094H64.5219V56.2894H65.5939L69.2579 47.4894H69.6579L73.7219 56.2894H74.4899ZM67.0659 53.7294H69.9939L68.4259 50.4654L67.0659 53.7294ZM75.6832 49.5694V49.2494H80.0032V49.5694H79.1552L80.8832 53.4414L81.9232 50.8334L81.3952 49.5694H80.8032V49.2494H84.8032V49.5694H84.0992L85.8272 53.4414L87.3152 49.5694H86.0352V49.2494H88.6432V49.5694H87.6832L84.9792 56.6094H84.6432L82.1152 51.3134L80.0192 56.6094H79.6832L76.4352 49.5694H75.6832ZM98.0844 56.2894C97.9777 56.396 97.7751 56.492 97.4764 56.5774C97.1777 56.652 96.8311 56.6894 96.4364 56.6894C95.5617 56.6894 95.0124 56.428 94.7884 55.9054C94.2551 56.46 93.4391 56.7374 92.3404 56.7374C91.7537 56.7374 91.2684 56.604 90.8844 56.3374C90.5111 56.06 90.3244 55.6547 90.3244 55.1214C90.3244 54.4067 90.6017 53.8574 91.1564 53.4734C91.7111 53.0787 92.6817 52.8014 94.0684 52.6414L94.7084 52.5614V51.7774C94.7084 50.8494 94.6391 50.2254 94.5004 49.9054C94.3617 49.5854 94.0844 49.4254 93.6684 49.4254C93.2631 49.4254 93.0017 49.484 92.8844 49.6014C92.7671 49.708 92.7244 49.836 92.7564 49.9854C92.7884 50.124 92.8417 50.3107 92.9164 50.5454C92.9911 50.78 93.0284 50.9667 93.0284 51.1054C93.0284 51.436 92.9111 51.7187 92.6764 51.9534C92.4524 52.1774 92.1751 52.2894 91.8444 52.2894C91.5244 52.2894 91.2471 52.1774 91.0124 51.9534C90.7777 51.7187 90.6604 51.436 90.6604 51.1054C90.6604 50.5614 90.9377 50.0974 91.4924 49.7134C92.0577 49.3187 92.8951 49.1214 94.0044 49.1214C95.1244 49.1214 95.9191 49.34 96.3884 49.7774C96.8684 50.2147 97.1084 50.988 97.1084 52.0974V54.9774C97.1084 55.5427 97.1777 55.9 97.3164 56.0494C97.4551 56.188 97.7111 56.2147 98.0844 56.1294V56.2894ZM92.5484 54.8014C92.6017 55.2067 92.7511 55.5214 92.9964 55.7454C93.2417 55.9587 93.5244 56.0654 93.8444 56.0654C94.1751 56.0654 94.4631 55.9054 94.7084 55.5854V52.8654L94.1324 52.9454C93.6417 53.0094 93.2417 53.196 92.9324 53.5054C92.6337 53.8147 92.5057 54.2467 92.5484 54.8014ZM103.923 56.6094H99.9232V56.2894H100.723V49.5694H99.9232V49.2494H103.123V51.1534C103.219 50.6307 103.39 50.204 103.635 49.8734C103.891 49.5427 104.168 49.324 104.467 49.2174C104.776 49.1107 105.07 49.0574 105.347 49.0574C105.635 49.0574 105.907 49.1107 106.163 49.2174C106.43 49.3134 106.627 49.516 106.755 49.8254C106.883 50.124 106.888 50.428 106.771 50.7374C106.654 51.036 106.446 51.2494 106.147 51.3774C105.859 51.5054 105.592 51.5214 105.347 51.4254C105.102 51.3294 104.926 51.2014 104.819 51.0414C104.712 50.8707 104.638 50.7107 104.595 50.5614C104.488 50.1667 104.344 49.9694 104.163 49.9694C103.96 49.9694 103.736 50.3214 103.491 51.0254C103.246 51.7187 103.123 52.4547 103.123 53.2334V56.2894H103.923V56.6094ZM111.562 56.8014C110.698 56.8014 109.951 56.46 109.322 55.7774C108.692 55.0947 108.378 54.1294 108.378 52.8814C108.378 51.6334 108.687 50.6574 109.306 49.9534C109.924 49.2494 110.676 48.8974 111.562 48.8974C111.999 48.8974 112.41 48.988 112.794 49.1694C113.178 49.3507 113.455 49.6227 113.626 49.9854V46.2094H112.826V45.8894H116.026V56.2894H116.826V56.6094H113.626V55.8734C113.338 56.492 112.65 56.8014 111.562 56.8014ZM113.626 53.1054V50.4654C113.338 49.8894 112.959 49.6014 112.49 49.6014C112.031 49.6014 111.636 49.868 111.306 50.4014C110.975 50.9347 110.81 51.7827 110.81 52.9454C110.81 54.0974 110.98 54.94 111.322 55.4734C111.663 56.0067 112.074 56.236 112.554 56.1614C112.82 56.1187 113.023 56.0334 113.162 55.9054C113.471 55.6067 113.626 54.6734 113.626 53.1054ZM122.661 47.9694V47.6494H127.349V47.9694H126.565L128.757 52.9134L129.781 50.3694L128.709 47.9694H128.101V47.6494H132.485V47.9694H131.733L133.877 52.8494L135.573 47.9694H134.293V47.6494H137.045V47.9694H135.957L132.965 56.6094H132.581L132.645 56.4334L132.565 56.6094L129.989 50.8174L127.669 56.6094H127.285L123.429 47.9694H122.661ZM141.924 56.2894H142.724V56.6094H138.724V56.2894H139.524V49.5694H138.884V49.2494H141.924V56.2894ZM142.068 47.1374C142.068 47.5214 141.93 47.852 141.652 48.1294C141.386 48.396 141.055 48.5294 140.66 48.5294C140.276 48.5294 139.946 48.396 139.668 48.1294C139.391 47.852 139.252 47.5214 139.252 47.1374C139.252 46.7427 139.391 46.4067 139.668 46.1294C139.946 45.852 140.276 45.7134 140.66 45.7134C141.055 45.7134 141.386 45.852 141.652 46.1294C141.93 46.4067 142.068 46.7427 142.068 47.1374ZM153.129 56.2894H153.929V56.6094H149.929V56.2894H150.729V51.8094C150.729 51.052 150.617 50.5134 150.393 50.1934C150.169 49.8734 149.833 49.7134 149.385 49.7134C148.777 49.7134 148.292 50.0334 147.929 50.6734V56.2894H148.729V56.6094H144.729V56.2894H145.529V49.5694H144.729V49.2494H147.929V50.0814C148.132 49.804 148.447 49.5694 148.873 49.3774C149.311 49.1747 149.78 49.0734 150.281 49.0734C152.18 49.0734 153.129 50.1027 153.129 52.1614V56.2894ZM164.322 56.2894H165.122V56.6094H161.122V56.2894H161.922V51.8094C161.922 51.052 161.81 50.5134 161.586 50.1934C161.362 49.8734 161.026 49.7134 160.578 49.7134C159.97 49.7134 159.485 50.0334 159.122 50.6734V56.2894H159.922V56.6094H155.922V56.2894H156.722V49.5694H155.922V49.2494H159.122V50.0814C159.325 49.804 159.639 49.5694 160.066 49.3774C160.503 49.1747 160.973 49.0734 161.474 49.0734C163.373 49.0734 164.322 50.1027 164.322 52.1614V56.2894ZM174.186 53.4094H169.354C169.461 55.2867 170.192 56.2254 171.546 56.2254C171.909 56.2254 172.32 56.14 172.778 55.9694C173.248 55.7987 173.589 55.5587 173.802 55.2494L174.026 55.4094C173.792 55.804 173.392 56.1294 172.826 56.3854C172.261 56.6414 171.696 56.7694 171.13 56.7694C170.576 56.7694 170.074 56.716 169.626 56.6094C169.178 56.492 168.741 56.3 168.314 56.0334C167.888 55.7667 167.552 55.3667 167.306 54.8334C167.072 54.3 166.954 53.6547 166.954 52.8974C166.954 51.6067 167.312 50.652 168.026 50.0334C168.741 49.404 169.605 49.0894 170.618 49.0894C171.642 49.0894 172.49 49.4307 173.162 50.1134C173.845 50.796 174.186 51.8947 174.186 53.4094ZM169.338 53.0894H171.946C171.946 52.108 171.84 51.2494 171.626 50.5134C171.424 49.7774 171.093 49.4094 170.634 49.4094C170.176 49.4094 169.845 49.7667 169.642 50.4814C169.44 51.1854 169.338 51.996 169.338 52.9134V53.0894ZM180.229 56.6094H176.229V56.2894H177.029V49.5694H176.229V49.2494H179.429V51.1534C179.525 50.6307 179.695 50.204 179.941 49.8734C180.197 49.5427 180.474 49.324 180.773 49.2174C181.082 49.1107 181.375 49.0574 181.653 49.0574C181.941 49.0574 182.213 49.1107 182.469 49.2174C182.735 49.3134 182.933 49.516 183.061 49.8254C183.189 50.124 183.194 50.428 183.077 50.7374C182.959 51.036 182.751 51.2494 182.453 51.3774C182.165 51.5054 181.898 51.5214 181.653 51.4254C181.407 51.3294 181.231 51.2014 181.125 51.0414C181.018 50.8707 180.943 50.7107 180.901 50.5614C180.794 50.1667 180.65 49.9694 180.469 49.9694C180.266 49.9694 180.042 50.3214 179.797 51.0254C179.551 51.7187 179.429 52.4547 179.429 53.2334V56.2894H180.229V56.6094Z" fill="white"/>
<defs>
<filter id="filter0_d_169_68" x="8.7165" y="2.60688" width="63.414" height="80.7882" filterUnits="userSpaceOnUse" color-interpolation-filters="sRGB">
<feFlood flood-opacity="0" result="BackgroundImageFix"/>
<feColorMatrix in="SourceAlpha" type="matrix" values="0 0 0 0 0 0 0 0 0 0 0 0 0 0 0 0 0 0 127 0" result="hardAlpha"/>
<feOffset dx="5.48449" dy="5.48449"/>
<feGaussianBlur stdDeviation="3.13399"/>
<feComposite in2="hardAlpha" operator="out"/>
<feColorMatrix type="matrix" values="0 0 0 0 0 0 0 0 0 0 0 0 0 0 0 0 0 0 0.3 0"/>
<feBlend mode="normal" in2="BackgroundImageFix" result="effect1_dropShadow_169_68"/>
<feBlend mode="normal" in="SourceGraphic" in2="effect1_dropShadow_169_68" result="shape"/>
</filter>
<linearGradient id="paint0_linear_169_68" x1="34.7976" y1="37.9209" x2="34.7976" y2="49.2948" gradientUnits="userSpaceOnUse">
<stop stop-color="#C07F00"/>
<stop offset="1" stop-color="#DE9300"/>
</linearGradient>
<linearGradient id="paint1_linear_169_68" x1="49.2429" y1="21.331" x2="34.5967" y2="21.331" gradientUnits="userSpaceOnUse">
<stop stop-color="#DE9300"/>
<stop offset="1" stop-color="#FFBC11"/>
</linearGradient>
<linearGradient id="paint2_linear_169_68" x1="49.2429" y1="21.331" x2="34.5967" y2="21.331" gradientUnits="userSpaceOnUse">
<stop stop-color="#DE9300"/>
<stop offset="1" stop-color="#FFBC11"/>
</linearGradient>
<linearGradient id="paint3_linear_169_68" x1="49.2429" y1="21.331" x2="34.5967" y2="21.331" gradientUnits="userSpaceOnUse">
<stop stop-color="#DE9300"/>
<stop offset="1" stop-color="#FFBC11"/>
</linearGradient>
<linearGradient id="paint4_linear_169_68" x1="49.2429" y1="21.331" x2="34.5967" y2="21.331" gradientUnits="userSpaceOnUse">
<stop stop-color="#DE9300"/>
<stop offset="1" stop-color="#FFBC11"/>
</linearGradient>
</defs>
</svg>
