<svg width="159" height="54" viewBox="0 0 159 54" fill="none" xmlns="http://www.w3.org/2000/svg">
<rect x="0.5" y="0.5" width="158" height="53" rx="7.5" fill="#430078" fill-opacity="0.45" stroke="#6800B9"/>
<path d="M30.328 19.912C33.976 19.912 35.8 21.016 35.8 23.224C35.8 24.104 35.448 24.848 34.744 25.456C34.056 26.064 33.064 26.4 31.768 26.464C33.224 26.48 34.4 26.808 35.296 27.448C36.208 28.088 36.664 28.96 36.664 30.064C36.664 31.424 36.112 32.488 35.008 33.256C33.92 34.008 32.376 34.384 30.376 34.384C28.984 34.384 27.896 34.08 27.112 33.472C26.344 32.848 25.96 32.024 25.96 31C25.96 30.36 26.128 29.84 26.464 29.44C26.816 29.04 27.272 28.84 27.832 28.84C28.392 28.84 28.824 28.992 29.128 29.296C29.448 29.6 29.608 29.976 29.608 30.424C29.608 30.856 29.488 31.2 29.248 31.456C29.008 31.712 28.744 31.872 28.456 31.936C27.704 32.112 27.328 32.368 27.328 32.704C27.328 33.024 27.552 33.288 28 33.496C28.464 33.704 28.992 33.808 29.584 33.808C30.512 33.808 31.264 33.472 31.84 32.8C32.416 32.128 32.704 31.224 32.704 30.088C32.704 28.936 32.448 28.088 31.936 27.544C31.44 27 30.528 26.728 29.2 26.728H28.816V26.248H29.2C30.224 26.248 30.96 25.944 31.408 25.336C31.856 24.712 32.08 24.008 32.08 23.224C32.08 22.44 31.856 21.784 31.408 21.256C30.96 20.728 30.392 20.464 29.704 20.464C29.016 20.464 28.496 20.576 28.144 20.8C27.792 21.024 27.616 21.264 27.616 21.52C27.616 21.76 27.712 21.936 27.904 22.048C28.112 22.16 28.336 22.248 28.576 22.312C28.832 22.36 29.056 22.496 29.248 22.72C29.456 22.944 29.56 23.248 29.56 23.632C29.56 24.016 29.424 24.344 29.152 24.616C28.88 24.888 28.496 25.024 28 25.024C27.504 25.024 27.096 24.848 26.776 24.496C26.456 24.144 26.296 23.664 26.296 23.056C26.296 22.176 26.656 21.432 27.376 20.824C28.112 20.216 29.096 19.912 30.328 19.912ZM45.8168 20.704C46.7448 20.704 47.4008 20.656 47.7848 20.56C48.1688 20.448 48.4488 20.288 48.6248 20.08C48.8168 19.856 48.9928 19.56 49.1528 19.192H49.3928C49.5208 19.688 49.5848 20.232 49.5848 20.824C49.5848 21.864 49.3368 22.712 48.8408 23.368C48.3448 24.024 47.6168 24.352 46.6568 24.352C44.8968 24.352 43.3048 23.6 41.8808 22.096L41.3768 26.632C42.0488 25.992 43.1208 25.672 44.5928 25.672C46.5288 25.672 47.9688 26.032 48.9128 26.752C49.8728 27.456 50.3528 28.472 50.3528 29.8C50.3528 31.128 49.8168 32.2 48.7448 33.016C47.6888 33.832 46.1368 34.24 44.0888 34.24C42.6968 34.24 41.6088 33.936 40.8248 33.328C40.0568 32.704 39.6728 31.88 39.6728 30.856C39.6728 30.216 39.8408 29.696 40.1768 29.296C40.5288 28.896 40.9848 28.696 41.5448 28.696C42.1048 28.696 42.5368 28.848 42.8408 29.152C43.1608 29.456 43.3208 29.832 43.3208 30.28C43.3208 30.712 43.2008 31.056 42.9608 31.312C42.7208 31.568 42.4568 31.728 42.1688 31.792C41.4168 31.968 41.0408 32.224 41.0408 32.56C41.0408 32.88 41.2648 33.144 41.7128 33.352C42.1768 33.56 42.7048 33.664 43.2968 33.664C45.3608 33.664 46.3928 32.36 46.3928 29.752C46.3928 28.68 46.2088 27.848 45.8408 27.256C45.4888 26.664 44.7768 26.368 43.7048 26.368C42.6488 26.368 41.8008 26.768 41.1608 27.568L40.7528 27.472L41.5688 20.152C42.4808 20.52 43.8968 20.704 45.8168 20.704ZM69.4446 34H63.9246V33.52H64.8846V28.456L60.5886 21.04H59.3406V20.56H66.0606V21.04H64.8846L68.2446 27.088L71.3646 21.04H69.4446V20.56H73.6446V21.04H71.9646L68.4846 27.808V33.52H69.4446V34ZM86.7777 29.2H79.5297C79.6897 32.016 80.7857 33.424 82.8177 33.424C83.3617 33.424 83.9777 33.296 84.6657 33.04C85.3697 32.784 85.8817 32.424 86.2017 31.96L86.5377 32.2C86.1857 32.792 85.5857 33.28 84.7377 33.664C83.8897 34.048 83.0417 34.24 82.1937 34.24C81.3617 34.24 80.6097 34.16 79.9377 34C79.2657 33.824 78.6097 33.536 77.9697 33.136C77.3297 32.736 76.8257 32.136 76.4577 31.336C76.1057 30.536 75.9297 29.568 75.9297 28.432C75.9297 26.496 76.4657 25.064 77.5377 24.136C78.6097 23.192 79.9057 22.72 81.4257 22.72C82.9617 22.72 84.2337 23.232 85.2417 24.256C86.2657 25.28 86.7777 26.928 86.7777 29.2ZM79.5057 28.72H83.4177C83.4177 27.248 83.2577 25.96 82.9377 24.856C82.6337 23.752 82.1377 23.2 81.4497 23.2C80.7617 23.2 80.2657 23.736 79.9617 24.808C79.6577 25.864 79.5057 27.08 79.5057 28.456V28.72ZM101.481 33.52C101.321 33.68 101.017 33.824 100.569 33.952C100.121 34.064 99.6012 34.12 99.0092 34.12C97.6972 34.12 96.8732 33.728 96.5372 32.944C95.7372 33.776 94.5132 34.192 92.8652 34.192C91.9852 34.192 91.2572 33.992 90.6812 33.592C90.1212 33.176 89.8412 32.568 89.8412 31.768C89.8412 30.696 90.2572 29.872 91.0892 29.296C91.9212 28.704 93.3772 28.288 95.4572 28.048L96.4172 27.928V26.752C96.4172 25.36 96.3132 24.424 96.1052 23.944C95.8972 23.464 95.4812 23.224 94.8572 23.224C94.2492 23.224 93.8572 23.312 93.6812 23.488C93.5052 23.648 93.4412 23.84 93.4892 24.064C93.5372 24.272 93.6172 24.552 93.7292 24.904C93.8412 25.256 93.8972 25.536 93.8972 25.744C93.8972 26.24 93.7212 26.664 93.3692 27.016C93.0332 27.352 92.6172 27.52 92.1212 27.52C91.6412 27.52 91.2252 27.352 90.8732 27.016C90.5212 26.664 90.3452 26.24 90.3452 25.744C90.3452 24.928 90.7612 24.232 91.5932 23.656C92.4412 23.064 93.6972 22.768 95.3612 22.768C97.0412 22.768 98.2332 23.096 98.9372 23.752C99.6572 24.408 100.017 25.568 100.017 27.232V31.552C100.017 32.4 100.121 32.936 100.329 33.16C100.537 33.368 100.921 33.408 101.481 33.28V33.52ZM93.1772 31.288C93.2572 31.896 93.4812 32.368 93.8492 32.704C94.2172 33.024 94.6412 33.184 95.1212 33.184C95.6172 33.184 96.0492 32.944 96.4172 32.464V28.384L95.5532 28.504C94.8172 28.6 94.2172 28.88 93.7532 29.344C93.3052 29.808 93.1132 30.456 93.1772 31.288ZM110.239 34H104.239V33.52H105.439V23.44H104.239V22.96H109.039V25.816C109.183 25.032 109.439 24.392 109.807 23.896C110.191 23.4 110.607 23.072 111.055 22.912C111.519 22.752 111.959 22.672 112.375 22.672C112.807 22.672 113.215 22.752 113.599 22.912C113.999 23.056 114.295 23.36 114.487 23.824C114.679 24.272 114.687 24.728 114.511 25.192C114.335 25.64 114.023 25.96 113.575 26.152C113.143 26.344 112.743 26.368 112.375 26.224C112.007 26.08 111.743 25.888 111.583 25.648C111.423 25.392 111.311 25.152 111.247 24.928C111.087 24.336 110.871 24.04 110.599 24.04C110.295 24.04 109.959 24.568 109.591 25.624C109.223 26.664 109.039 27.768 109.039 28.936V33.52H110.239V34ZM122.561 33.808C124.225 33.808 125.057 33.352 125.057 32.44C125.057 31.928 124.769 31.512 124.193 31.192C123.617 30.856 122.921 30.584 122.105 30.376C121.289 30.168 120.481 29.928 119.681 29.656C118.897 29.384 118.241 28.952 117.713 28.36C117.201 27.768 116.993 26.992 117.089 26.032C117.185 25.072 117.673 24.28 118.553 23.656C119.449 23.032 120.545 22.72 121.841 22.72C123.153 22.72 124.209 22.928 125.009 23.344C125.809 23.76 126.257 24.32 126.353 25.024C126.417 25.456 126.345 25.856 126.137 26.224C125.945 26.592 125.617 26.784 125.153 26.8C124.705 26.816 124.329 26.696 124.025 26.44C123.737 26.184 123.601 25.888 123.617 25.552C123.633 25.216 123.761 24.92 124.001 24.664C124.241 24.392 124.361 24.176 124.361 24.016C124.361 23.744 124.097 23.544 123.569 23.416C123.057 23.272 122.457 23.2 121.769 23.2C121.097 23.2 120.545 23.352 120.113 23.656C119.681 23.96 119.465 24.336 119.465 24.784C119.465 25.232 119.729 25.616 120.257 25.936C120.801 26.256 121.457 26.52 122.225 26.728C122.993 26.92 123.753 27.144 124.505 27.4C125.273 27.64 125.921 28.032 126.449 28.576C126.993 29.12 127.265 29.808 127.265 30.64C127.265 31.744 126.873 32.632 126.089 33.304C125.305 33.96 124.121 34.288 122.537 34.288C120.953 34.288 119.665 34.048 118.673 33.568C117.697 33.088 117.161 32.472 117.065 31.72C117.001 31.288 117.073 30.888 117.281 30.52C117.489 30.152 117.817 29.96 118.265 29.944C118.713 29.928 119.081 30.048 119.369 30.304C119.673 30.56 119.817 30.856 119.801 31.192C119.785 31.528 119.657 31.832 119.417 32.104C119.177 32.36 119.057 32.568 119.057 32.728C119.057 33.048 119.425 33.312 120.161 33.52C120.913 33.712 121.713 33.808 122.561 33.808Z" fill="white"/>
</svg>
