<svg width="233" height="67" viewBox="0 0 233 67" fill="none" xmlns="http://www.w3.org/2000/svg">
<rect x="0.5" y="0.5" width="232" height="65.4381" rx="10.5" fill="#780048" fill-opacity="0.45" stroke="#B900A6"/>
<path d="M77.112 42.562L78.9802 47.9418H85.0261L80.1349 51.2667L82.0032 56.6465L77.112 53.3216L72.2207 56.6465L74.089 51.2667L69.1978 47.9418H75.2437L77.112 42.562Z" fill="#FDD254"/>
<path d="M93.7548 42.562L95.6231 47.9418H101.669L96.7777 51.2667L98.646 56.6465L93.7548 53.3216L88.8636 56.6465L90.7318 51.2667L85.8406 47.9418H91.8865L93.7548 42.562Z" fill="#FDD254"/>
<path d="M110.398 42.562L112.266 47.9418H118.312L113.421 51.2667L115.289 56.6465L110.398 53.3216L105.506 56.6465L107.375 51.2667L102.483 47.9418H108.529L110.398 42.562Z" fill="#FDD254"/>
<path d="M127.041 42.562L128.909 47.9418H134.955L130.063 51.2667L131.932 56.6465L127.041 53.3216L122.149 56.6465L124.018 51.2667L119.126 47.9418H125.172L127.041 42.562Z" fill="#FDD254"/>
<path d="M143.683 42.562L145.552 47.9418H151.597L146.706 51.2667L148.574 56.6465L143.683 53.3216L138.792 56.6465L140.66 51.2667L135.769 47.9418H141.815L143.683 42.562Z" fill="#FDD254"/>
<rect x="16.0333" y="10.8809" width="32.2857" height="31.181" rx="15.5905" fill="#260017" stroke="#B900A6"/>
<path d="M73.4305 30.6096H69.4305V30.2896H70.2305V21.9696H69.4305V21.6496H73.4305C74.2199 21.6496 74.9292 21.783 75.5585 22.0496C76.1985 22.3056 76.7159 22.647 77.1105 23.0736C77.9105 23.959 78.3105 24.9616 78.3105 26.0816C78.3105 27.5963 77.9105 28.7323 77.1105 29.4896C76.3105 30.2363 75.0839 30.6096 73.4305 30.6096ZM72.6305 30.2896C73.7825 30.2896 74.6145 29.9803 75.1265 29.3616C75.6385 28.7323 75.8945 27.7136 75.8945 26.3056C75.8945 24.887 75.6172 23.8096 75.0625 23.0736C74.5079 22.3376 73.6972 21.9696 72.6305 21.9696V30.2896ZM87.2263 27.4096H82.3943C82.5009 29.287 83.2316 30.2256 84.5863 30.2256C84.9489 30.2256 85.3596 30.1403 85.8183 29.9696C86.2876 29.799 86.6289 29.559 86.8423 29.2496L87.0663 29.4096C86.8316 29.8043 86.4316 30.1296 85.8663 30.3856C85.3009 30.6416 84.7356 30.7696 84.1703 30.7696C83.6156 30.7696 83.1143 30.7163 82.6663 30.6096C82.2183 30.4923 81.7809 30.3003 81.3543 30.0336C80.9276 29.767 80.5916 29.367 80.3463 28.8336C80.1116 28.3003 79.9943 27.655 79.9943 26.8976C79.9943 25.607 80.3516 24.6523 81.0663 24.0336C81.7809 23.4043 82.6449 23.0896 83.6583 23.0896C84.6823 23.0896 85.5303 23.431 86.2023 24.1136C86.8849 24.7963 87.2263 25.895 87.2263 27.4096ZM82.3783 27.0896H84.9863C84.9863 26.1083 84.8796 25.2496 84.6663 24.5136C84.4636 23.7776 84.1329 23.4096 83.6743 23.4096C83.2156 23.4096 82.8849 23.767 82.6823 24.4816C82.4796 25.1856 82.3783 25.9963 82.3783 26.9136V27.0896ZM92.4687 30.2896H93.2687V30.6096H89.2687V30.2896H90.0687V20.2096H89.2687V19.8896H92.4687V30.2896ZM98.4737 30.2896H99.2737V30.6096H95.2737V30.2896H96.0737V23.5696H95.4337V23.2496H98.4737V30.2896ZM98.6177 21.1376C98.6177 21.5216 98.479 21.8523 98.2017 22.1296C97.935 22.3963 97.6043 22.5296 97.2097 22.5296C96.8257 22.5296 96.495 22.3963 96.2177 22.1296C95.9403 21.8523 95.8017 21.5216 95.8017 21.1376C95.8017 20.743 95.9403 20.407 96.2177 20.1296C96.495 19.8523 96.8257 19.7136 97.2097 19.7136C97.6043 19.7136 97.935 19.8523 98.2017 20.1296C98.479 20.407 98.6177 20.743 98.6177 21.1376ZM101.119 26.9296C101.119 25.671 101.487 24.7163 102.223 24.0656C102.959 23.415 103.892 23.0896 105.023 23.0896C106.164 23.0896 107.012 23.3776 107.567 23.9536C108.121 24.519 108.319 25.1056 108.159 25.7136C108.073 26.0443 107.892 26.2896 107.615 26.4496C107.348 26.599 107.055 26.6363 106.735 26.5616C106.063 26.4016 105.727 26.0123 105.727 25.3936C105.727 25.2336 105.743 24.9936 105.775 24.6736C105.817 24.343 105.833 24.103 105.823 23.9536C105.812 23.8043 105.78 23.687 105.727 23.6016C105.62 23.4203 105.369 23.351 104.975 23.3936C104.015 23.543 103.535 24.7216 103.535 26.9296C103.535 29.127 104.319 30.2256 105.887 30.2256C106.249 30.2256 106.617 30.1296 106.991 29.9376C107.364 29.7456 107.641 29.5163 107.823 29.2496L108.047 29.4096C107.801 29.815 107.433 30.1403 106.943 30.3856C106.452 30.631 105.903 30.7536 105.295 30.7536C102.511 30.7536 101.119 29.479 101.119 26.9296ZM113.406 30.2896H114.206V30.6096H110.206V30.2896H111.006V23.5696H110.366V23.2496H113.406V30.2896ZM113.55 21.1376C113.55 21.5216 113.411 21.8523 113.134 22.1296C112.867 22.3963 112.536 22.5296 112.142 22.5296C111.758 22.5296 111.427 22.3963 111.15 22.1296C110.872 21.8523 110.734 21.5216 110.734 21.1376C110.734 20.743 110.872 20.407 111.15 20.1296C111.427 19.8523 111.758 19.7136 112.142 19.7136C112.536 19.7136 112.867 19.8523 113.134 20.1296C113.411 20.407 113.55 20.743 113.55 21.1376ZM118.851 29.6496C119.085 30.183 119.491 30.4496 120.067 30.4496C120.643 30.4496 121.053 30.1776 121.299 29.6336C121.544 29.0896 121.667 28.1936 121.667 26.9456C121.667 25.687 121.544 24.7856 121.299 24.2416C121.053 23.687 120.643 23.4096 120.067 23.4096C119.491 23.4096 119.085 23.687 118.851 24.2416C118.616 24.7856 118.499 25.687 118.499 26.9456C118.499 28.2043 118.616 29.1056 118.851 29.6496ZM120.035 30.7696C119.021 30.7696 118.104 30.439 117.283 29.7776C116.461 29.1163 116.051 28.1776 116.051 26.9616C116.051 26.311 116.168 25.7296 116.403 25.2176C116.648 24.7056 116.968 24.3003 117.363 24.0016C117.768 23.703 118.2 23.479 118.659 23.3296C119.117 23.1696 119.587 23.0896 120.067 23.0896C120.547 23.0896 121.016 23.1696 121.475 23.3296C121.944 23.479 122.376 23.703 122.771 24.0016C123.176 24.3003 123.501 24.7056 123.747 25.2176C123.992 25.7296 124.115 26.3056 124.115 26.9456C124.115 27.5856 123.992 28.1563 123.747 28.6576C123.501 29.159 123.176 29.559 122.771 29.8576C121.96 30.4656 121.048 30.7696 120.035 30.7696ZM131.642 30.6096V29.7616C131.439 30.0496 131.119 30.295 130.682 30.4976C130.255 30.6896 129.791 30.7856 129.29 30.7856C127.391 30.7856 126.442 29.7563 126.442 27.6976V23.5696H125.642V23.2496H128.842V28.0496C128.842 28.807 128.954 29.3456 129.178 29.6656C129.402 29.9856 129.738 30.1456 130.186 30.1456C130.783 30.1456 131.268 29.8256 131.642 29.1856V23.5696H130.842V23.2496H134.042V30.2896H134.842V30.6096H131.642ZM140.446 30.4816C141.555 30.4816 142.11 30.1776 142.11 29.5696C142.11 29.2283 141.918 28.951 141.534 28.7376C141.15 28.5136 140.686 28.3323 140.142 28.1936C139.598 28.055 139.059 27.895 138.526 27.7136C138.003 27.5323 137.566 27.2443 137.214 26.8496C136.872 26.455 136.734 25.9376 136.798 25.2976C136.862 24.6576 137.187 24.1296 137.774 23.7136C138.371 23.2976 139.102 23.0896 139.966 23.0896C140.84 23.0896 141.544 23.2283 142.078 23.5056C142.611 23.783 142.91 24.1563 142.974 24.6256C143.016 24.9136 142.968 25.1803 142.83 25.4256C142.702 25.671 142.483 25.799 142.174 25.8096C141.875 25.8203 141.624 25.7403 141.422 25.5696C141.23 25.399 141.139 25.2016 141.15 24.9776C141.16 24.7536 141.246 24.5563 141.406 24.3856C141.566 24.2043 141.646 24.0603 141.646 23.9536C141.646 23.7723 141.47 23.639 141.118 23.5536C140.776 23.4576 140.376 23.4096 139.918 23.4096C139.47 23.4096 139.102 23.511 138.814 23.7136C138.526 23.9163 138.382 24.167 138.382 24.4656C138.382 24.7643 138.558 25.0203 138.91 25.2336C139.272 25.447 139.71 25.623 140.222 25.7616C140.734 25.8896 141.24 26.039 141.742 26.2096C142.254 26.3696 142.686 26.631 143.038 26.9936C143.4 27.3563 143.582 27.815 143.582 28.3696C143.582 29.1056 143.32 29.6976 142.798 30.1456C142.275 30.583 141.486 30.8016 140.43 30.8016C139.374 30.8016 138.515 30.6416 137.854 30.3216C137.203 30.0016 136.846 29.591 136.782 29.0896C136.739 28.8016 136.787 28.535 136.926 28.2896C137.064 28.0443 137.283 27.9163 137.582 27.9056C137.88 27.895 138.126 27.975 138.318 28.1456C138.52 28.3163 138.616 28.5136 138.606 28.7376C138.595 28.9616 138.51 29.1643 138.35 29.3456C138.19 29.5163 138.11 29.655 138.11 29.7616C138.11 29.975 138.355 30.151 138.846 30.2896C139.347 30.4176 139.88 30.4816 140.446 30.4816ZM153.637 30.6096H149.637V30.2896H150.437V23.5696H149.477V23.2496H150.437C150.437 20.903 151.493 19.7296 153.605 19.7296C154.351 19.7296 154.922 19.8896 155.317 20.2096C155.711 20.519 155.909 20.8816 155.909 21.2976C155.909 21.5536 155.823 21.7563 155.653 21.9056C155.493 22.0443 155.301 22.1136 155.077 22.1136C154.501 22.1136 154.213 21.7723 154.213 21.0896C154.213 20.3963 154.01 20.0496 153.605 20.0496C153.306 20.0496 153.103 20.311 152.997 20.8336C152.89 21.3456 152.837 22.151 152.837 23.2496H154.917V23.5696H152.837V30.2896H153.637V30.6096ZM160.063 29.6496C160.298 30.183 160.703 30.4496 161.279 30.4496C161.855 30.4496 162.266 30.1776 162.511 29.6336C162.756 29.0896 162.879 28.1936 162.879 26.9456C162.879 25.687 162.756 24.7856 162.511 24.2416C162.266 23.687 161.855 23.4096 161.279 23.4096C160.703 23.4096 160.298 23.687 160.063 24.2416C159.828 24.7856 159.711 25.687 159.711 26.9456C159.711 28.2043 159.828 29.1056 160.063 29.6496ZM161.247 30.7696C160.234 30.7696 159.316 30.439 158.495 29.7776C157.674 29.1163 157.263 28.1776 157.263 26.9616C157.263 26.311 157.38 25.7296 157.615 25.2176C157.86 24.7056 158.18 24.3003 158.575 24.0016C158.98 23.703 159.412 23.479 159.871 23.3296C160.33 23.1696 160.799 23.0896 161.279 23.0896C161.759 23.0896 162.228 23.1696 162.687 23.3296C163.156 23.479 163.588 23.703 163.983 24.0016C164.388 24.3003 164.714 24.7056 164.959 25.2176C165.204 25.7296 165.327 26.3056 165.327 26.9456C165.327 27.5856 165.204 28.1563 164.959 28.6576C164.714 29.159 164.388 29.559 163.983 29.8576C163.172 30.4656 162.26 30.7696 161.247 30.7696ZM169.974 29.6496C170.209 30.183 170.614 30.4496 171.19 30.4496C171.766 30.4496 172.177 30.1776 172.422 29.6336C172.668 29.0896 172.79 28.1936 172.79 26.9456C172.79 25.687 172.668 24.7856 172.422 24.2416C172.177 23.687 171.766 23.4096 171.19 23.4096C170.614 23.4096 170.209 23.687 169.974 24.2416C169.74 24.7856 169.622 25.687 169.622 26.9456C169.622 28.2043 169.74 29.1056 169.974 29.6496ZM171.158 30.7696C170.145 30.7696 169.228 30.439 168.406 29.7776C167.585 29.1163 167.174 28.1776 167.174 26.9616C167.174 26.311 167.292 25.7296 167.526 25.2176C167.772 24.7056 168.092 24.3003 168.486 24.0016C168.892 23.703 169.324 23.479 169.782 23.3296C170.241 23.1696 170.71 23.0896 171.19 23.0896C171.67 23.0896 172.14 23.1696 172.598 23.3296C173.068 23.479 173.5 23.703 173.894 24.0016C174.3 24.3003 174.625 24.7056 174.87 25.2176C175.116 25.7296 175.238 26.3056 175.238 26.9456C175.238 27.5856 175.116 28.1563 174.87 28.6576C174.625 29.159 174.3 29.559 173.894 29.8576C173.084 30.4656 172.172 30.7696 171.158 30.7696ZM180.27 30.8016C179.406 30.8016 178.659 30.4603 178.03 29.7776C177.4 29.095 177.086 28.1296 177.086 26.8816C177.086 25.6336 177.395 24.6576 178.014 23.9536C178.632 23.2496 179.384 22.8976 180.27 22.8976C180.707 22.8976 181.118 22.9883 181.502 23.1696C181.886 23.351 182.163 23.623 182.334 23.9856V20.2096H181.534V19.8896H184.734V30.2896H185.534V30.6096H182.334V29.8736C182.046 30.4923 181.358 30.8016 180.27 30.8016ZM182.334 27.1056V24.4656C182.046 23.8896 181.667 23.6016 181.198 23.6016C180.739 23.6016 180.344 23.8683 180.014 24.4016C179.683 24.935 179.518 25.783 179.518 26.9456C179.518 28.0976 179.688 28.9403 180.03 29.4736C180.371 30.007 180.782 30.2363 181.262 30.1616C181.528 30.119 181.731 30.0336 181.87 29.9056C182.179 29.607 182.334 28.6736 182.334 27.1056ZM193.033 25.6816C192.756 25.1803 192.5 24.743 192.265 24.3696C192.041 23.9856 191.929 23.5856 191.929 23.1696C191.929 22.743 192.073 22.359 192.361 22.0176C192.649 21.6763 193.097 21.5056 193.705 21.5056C194.313 21.5056 194.761 21.6763 195.049 22.0176C195.337 22.359 195.481 22.7376 195.481 23.1536C195.481 23.5696 195.369 23.9696 195.145 24.3536C194.921 24.727 194.671 25.1696 194.393 25.6816C194.116 26.183 193.929 26.7216 193.833 27.2976H193.577C193.492 26.7216 193.311 26.183 193.033 25.6816ZM193.721 30.9456C193.316 30.9456 192.969 30.8016 192.681 30.5136C192.393 30.2256 192.249 29.879 192.249 29.4736C192.249 29.0576 192.393 28.7056 192.681 28.4176C192.969 28.1296 193.316 27.9856 193.721 27.9856C194.137 27.9856 194.489 28.1296 194.777 28.4176C195.065 28.7056 195.209 29.0576 195.209 29.4736C195.209 29.879 195.065 30.2256 194.777 30.5136C194.489 30.8016 194.137 30.9456 193.721 30.9456Z" fill="white"/>
</svg>
